<?xml version="1.0" encoding="UTF-8"?>
<svg xmlns="http://www.w3.org/2000/svg" xmlns:xlink="http://www.w3.org/1999/xlink" viewBox="0 0 908.934 658.807">
  <defs>
    <style>
      .cls-1 {
        fill: url(#linear-gradient);
      }

      .cls-1, .cls-2, .cls-3, .cls-4, .cls-5, .cls-6, .cls-7, .cls-8, .cls-9, .cls-10, .cls-11, .cls-12 {
        stroke-width: 0px;
      }

      .cls-2 {
        fill: url(#linear-gradient-6);
      }

      .cls-13 {
        isolation: isolate;
      }

      .cls-3 {
        fill: url(#radial-gradient-3);
        opacity: .64;
      }

      .cls-3, .cls-4, .cls-5, .cls-7, .cls-8, .cls-10 {
        mix-blend-mode: screen;
      }

      .cls-4 {
        fill: url(#radial-gradient-6);
      }

      .cls-5 {
        fill: url(#radial-gradient-5);
      }

      .cls-6 {
        fill: url(#linear-gradient-5);
      }

      .cls-7 {
        fill: url(#radial-gradient-4);
      }

      .cls-8 {
        fill: url(#radial-gradient);
      }

      .cls-14 {
        stroke: url(#linear-gradient-2);
      }

      .cls-14, .cls-15 {
        fill: none;
        stroke-linecap: round;
        stroke-miterlimit: 10;
        stroke-width: 4px;
      }

      .cls-9 {
        fill: url(#linear-gradient-7);
      }

      .cls-15 {
        stroke: url(#linear-gradient-3);
      }

      .cls-10 {
        fill: url(#radial-gradient-2);
      }

      .cls-11 {
        fill: url(#New_Gradient_Swatch);
      }

      .cls-12 {
        fill: url(#linear-gradient-4);
      }
    </style>
    <linearGradient id="linear-gradient" x1="276.424" y1="71.325" x2="765.154" y2="779.796" gradientUnits="userSpaceOnUse">
      <stop offset=".036" stop-color="#6a4527"/>
      <stop offset="1" stop-color="#59331b"/>
    </linearGradient>
    <linearGradient id="linear-gradient-2" x1="449.82" y1="608.5" x2="449.82" y2="38.385" gradientUnits="userSpaceOnUse">
      <stop offset=".085" stop-color="#edeec6"/>
      <stop offset=".343" stop-color="#cfad6d"/>
      <stop offset="1" stop-color="#59331b"/>
    </linearGradient>
    <linearGradient id="linear-gradient-3" x1="449.82" y1="643.052" x2="449.82" y2="3.833" gradientUnits="userSpaceOnUse">
      <stop offset="0" stop-color="#59331b"/>
      <stop offset=".657" stop-color="#cfad6d"/>
      <stop offset=".915" stop-color="#edeec6"/>
    </linearGradient>
    <linearGradient id="New_Gradient_Swatch" data-name="New Gradient Swatch" x1="4.513" y1="323.442" x2="895.126" y2="323.442" gradientUnits="userSpaceOnUse">
      <stop offset="0" stop-color="#b88c32"/>
      <stop offset=".209" stop-color="#edeec6"/>
      <stop offset=".422" stop-color="#cfad6d"/>
      <stop offset=".611" stop-color="#59331b"/>
      <stop offset=".801" stop-color="#7c4e2b"/>
      <stop offset=".977" stop-color="#cfad6d"/>
    </linearGradient>
    <linearGradient id="linear-gradient-4" x1="4.513" y1="23.109" x2="895.126" y2="23.109" gradientUnits="userSpaceOnUse">
      <stop offset=".023" stop-color="#cfad6d"/>
      <stop offset=".32" stop-color="#edeec6"/>
      <stop offset=".618" stop-color="#cfad6d"/>
      <stop offset="1" stop-color="#b88c32"/>
    </linearGradient>
    <linearGradient id="linear-gradient-5" x1="19.298" y1="12.41" x2="16.419" y2="639.146" gradientUnits="userSpaceOnUse">
      <stop offset="0" stop-color="#b88c32"/>
      <stop offset=".209" stop-color="#edeec6"/>
      <stop offset=".422" stop-color="#cfad6d"/>
      <stop offset=".611" stop-color="#59331b"/>
      <stop offset=".801" stop-color="#7c4e2b"/>
      <stop offset=".977" stop-color="#cfad6d"/>
    </linearGradient>
    <linearGradient id="linear-gradient-6" x1="53.809" y1="627.104" x2="880.062" y2="620.387" gradientUnits="userSpaceOnUse">
      <stop offset=".01" stop-color="#7c4e2b"/>
      <stop offset=".359" stop-color="#cfad6d"/>
      <stop offset="1" stop-color="#59331b"/>
    </linearGradient>
    <linearGradient id="linear-gradient-7" x1="885.303" y1="2.625" x2="878.105" y2="676.388" xlink:href="#linear-gradient-5"/>
    <radialGradient id="radial-gradient" cx="494.151" cy="-1234.829" fx="494.151" fy="-1234.829" r="228.597" gradientTransform="translate(-330.915 130.464) scale(1.44 .087)" gradientUnits="userSpaceOnUse">
      <stop offset=".023" stop-color="#dbbd84"/>
      <stop offset="1" stop-color="#000"/>
    </radialGradient>
    <radialGradient id="radial-gradient-2" cx="534.734" cy="7905.637" fx="534.734" fy="7905.637" r="228.649" gradientTransform="translate(-512.012 242.154) scale(1.843 .048)" xlink:href="#radial-gradient"/>
    <radialGradient id="radial-gradient-3" cx="369.333" cy="5649.952" fx="369.333" fy="5649.952" r="158.054" gradientTransform="translate(273.196 -349.483) rotate(90) scale(1.773 .046)" xlink:href="#radial-gradient"/>
    <radialGradient id="radial-gradient-4" cx="369.333" cy="-13338.063" fx="369.333" fy="-13338.063" r="158.054" gradientTransform="translate(273.196 -349.483) rotate(90) scale(1.773 .046)" xlink:href="#radial-gradient"/>
    <radialGradient id="radial-gradient-5" cx="526.025" cy="-26119.665" fx="526.025" fy="-26119.665" r="228.746" gradientTransform="translate(459.566 -318.849) rotate(90) scale(1.156 .016)" xlink:href="#radial-gradient"/>
    <radialGradient id="radial-gradient-6" cx="502.379" cy="-9766.073" fx="502.379" fy="-9766.073" r="228.592" gradientTransform="translate(1379.718 485.206) rotate(-180) scale(1.77 .012)" xlink:href="#radial-gradient"/>
  </defs>
  <g class="cls-13">
    <g id="Layer_1" data-name="Layer 1">
      <g>
        <g>
          <g>
            <path class="cls-1" d="M899.547,0l-3.026,12.071H9.365v631.467l-7.441-.549-1.924,3.779,9.266,11.915.099-.128v.252h899.569V12.071l-9.387-12.071ZM873.108,612.738H45.191V58.14h827.916v554.597Z"/>
            <rect class="cls-14" x="31.383" y="40.385" width="836.873" height="566.115"/>
            <rect class="cls-15" x="4.513" y="5.833" width="890.613" height="635.219"/>
            <path class="cls-11" d="M895.126,641.052H4.513V5.833h890.613v635.219ZM31.383,606.5h836.873V40.385H31.383v566.115Z"/>
          </g>
          <polygon class="cls-12" points="4.513 5.833 31.383 40.385 868.256 40.385 895.126 5.833 4.513 5.833"/>
          <polygon class="cls-6" points="4.513 5.833 31.383 40.385 31.383 606.5 4.513 641.052 4.513 5.833"/>
          <polygon class="cls-2" points="4.513 641.052 895.126 641.052 868.256 606.5 31.383 606.5 4.513 641.052"/>
          <polygon class="cls-9" points="868.256 606.5 868.256 40.385 895.126 5.833 895.126 641.052 868.256 606.5"/>
        </g>
        <ellipse class="cls-8" cx="380.739" cy="23.109" rx="329.281" ry="19.87"/>
        <path class="cls-10" d="M895.126,623.776c0,6.096-188.695,11.037-421.462,11.037s-421.462-4.942-421.462-11.037,188.695-11.038,421.462-11.038,421.462,4.942,421.462,11.038Z"/>
        <path class="cls-3" d="M12.35,585.648c-4.029,0-7.295-125.499-7.295-280.31S8.321,25.028,12.35,25.028s7.295,125.499,7.295,280.31-3.266,280.31-7.295,280.31Z"/>
        <path class="cls-7" d="M888.986,585.648c-4.029,0-7.295-125.499-7.295-280.31s3.266-280.31,7.295-280.31,7.295,125.499,7.295,280.31-3.266,280.31-7.295,280.31Z"/>
        <ellipse class="cls-5" cx="868.256" cy="289.433" rx="3.581" ry="264.405"/>
        <ellipse class="cls-4" cx="490.365" cy="606.5" rx="404.762" ry="2.838"/>
      </g>
    </g>
  </g>
</svg>