<?xml version="1.0" encoding="UTF-8"?>
<svg xmlns="http://www.w3.org/2000/svg" xmlns:xlink="http://www.w3.org/1999/xlink" viewBox="0 0 878.877 476.878">
  <defs>
    <style>
      .cls-1 {
        fill: url(#linear-gradient);
      }

      .cls-1, .cls-2, .cls-3, .cls-4, .cls-5, .cls-6, .cls-7, .cls-8, .cls-9, .cls-10, .cls-11, .cls-12 {
        stroke-width: 0px;
      }

      .cls-2 {
        fill: url(#linear-gradient-6);
      }

      .cls-13 {
        isolation: isolate;
      }

      .cls-3 {
        fill: url(#radial-gradient-3);
        opacity: .64;
      }

      .cls-3, .cls-4, .cls-5, .cls-7, .cls-8, .cls-10 {
        mix-blend-mode: screen;
      }

      .cls-4 {
        fill: url(#radial-gradient-6);
      }

      .cls-5 {
        fill: url(#radial-gradient-5);
      }

      .cls-6 {
        fill: url(#linear-gradient-5);
      }

      .cls-7 {
        fill: url(#radial-gradient-4);
      }

      .cls-8 {
        fill: url(#radial-gradient);
      }

      .cls-14 {
        stroke: url(#linear-gradient-2);
      }

      .cls-14, .cls-15 {
        fill: none;
        stroke-linecap: round;
        stroke-miterlimit: 10;
        stroke-width: 4px;
      }

      .cls-9 {
        fill: url(#linear-gradient-7);
      }

      .cls-15 {
        stroke: url(#linear-gradient-3);
      }

      .cls-10 {
        fill: url(#radial-gradient-2);
      }

      .cls-11 {
        fill: url(#New_Gradient_Swatch);
      }

      .cls-12 {
        fill: url(#linear-gradient-4);
      }
    </style>
    <linearGradient id="linear-gradient" x1="289.221" y1="20.694" x2="701.163" y2="617.85" gradientUnits="userSpaceOnUse">
      <stop offset=".036" stop-color="#6a4527"/>
      <stop offset="1" stop-color="#59331b"/>
    </linearGradient>
    <linearGradient id="linear-gradient-2" x1="434.945" y1="441.015" x2="434.945" y2="27.233" gradientUnits="userSpaceOnUse">
      <stop offset=".085" stop-color="#edeec6"/>
      <stop offset=".343" stop-color="#cfad6d"/>
      <stop offset="1" stop-color="#59331b"/>
    </linearGradient>
    <linearGradient id="linear-gradient-3" x1="434.945" y1="466.026" x2="434.945" y2="2.222" gradientUnits="userSpaceOnUse">
      <stop offset="0" stop-color="#59331b"/>
      <stop offset=".657" stop-color="#cfad6d"/>
      <stop offset=".915" stop-color="#edeec6"/>
    </linearGradient>
    <linearGradient id="New_Gradient_Swatch" data-name="New Gradient Swatch" x1="4.364" y1="234.124" x2="865.525" y2="234.124" gradientUnits="userSpaceOnUse">
      <stop offset="0" stop-color="#b88c32"/>
      <stop offset=".209" stop-color="#edeec6"/>
      <stop offset=".422" stop-color="#cfad6d"/>
      <stop offset=".611" stop-color="#59331b"/>
      <stop offset=".801" stop-color="#7c4e2b"/>
      <stop offset=".977" stop-color="#cfad6d"/>
    </linearGradient>
    <linearGradient id="linear-gradient-4" x1="4.364" y1="16.727" x2="865.525" y2="16.727" gradientUnits="userSpaceOnUse">
      <stop offset=".023" stop-color="#cfad6d"/>
      <stop offset=".32" stop-color="#edeec6"/>
      <stop offset=".618" stop-color="#cfad6d"/>
      <stop offset="1" stop-color="#b88c32"/>
    </linearGradient>
    <linearGradient id="linear-gradient-5" x1="18.331" y1="8.998" x2="16.247" y2="462.661" gradientUnits="userSpaceOnUse">
      <stop offset="0" stop-color="#b88c32"/>
      <stop offset=".209" stop-color="#edeec6"/>
      <stop offset=".422" stop-color="#cfad6d"/>
      <stop offset=".611" stop-color="#59331b"/>
      <stop offset=".801" stop-color="#7c4e2b"/>
      <stop offset=".977" stop-color="#cfad6d"/>
    </linearGradient>
    <linearGradient id="linear-gradient-6" x1="52.064" y1="454.739" x2="850.993" y2="448.244" gradientUnits="userSpaceOnUse">
      <stop offset=".01" stop-color="#7c4e2b"/>
      <stop offset=".359" stop-color="#cfad6d"/>
      <stop offset="1" stop-color="#59331b"/>
    </linearGradient>
    <linearGradient id="linear-gradient-7" x1="855.149" y1="1.865" x2="849.939" y2="489.569" xlink:href="#linear-gradient-5"/>
    <radialGradient id="radial-gradient" cx="399.46" cy="-557.768" fx="399.46" fy="-557.768" r="144.336" gradientTransform="translate(-512.847 72.32) scale(2.205 .1)" gradientUnits="userSpaceOnUse">
      <stop offset=".023" stop-color="#dbbd84"/>
      <stop offset="1" stop-color="#000"/>
    </radialGradient>
    <radialGradient id="radial-gradient-2" cx="438.884" cy="4611.279" fx="438.884" fy="4611.279" r="144.369" gradientTransform="translate(-780.903 196.332) scale(2.823 .055)" xlink:href="#radial-gradient"/>
    <radialGradient id="radial-gradient-3" cx="333.29" cy="5102.767" fx="333.29" fy="5102.767" r="99.795" gradientTransform="translate(372.717 -456.422) rotate(90) scale(2.033 .071)" xlink:href="#radial-gradient"/>
    <radialGradient id="radial-gradient-4" cx="333.29" cy="-6886.257" fx="333.29" fy="-6886.257" r="99.795" gradientTransform="translate(372.717 -456.422) rotate(90) scale(2.033 .071)" xlink:href="#radial-gradient"/>
    <radialGradient id="radial-gradient-5" cx="483.846" cy="-7393.763" fx="483.846" fy="-7393.763" r="144.43" gradientTransform="translate(662.376 -431.926) rotate(90) scale(1.326 .024)" xlink:href="#radial-gradient"/>
    <radialGradient id="radial-gradient-6" cx="574.983" cy="2080.786" fx="574.983" fy="2080.786" r="144.333" gradientTransform="translate(2032.942 468.643) rotate(-180) scale(2.711 .014)" xlink:href="#radial-gradient"/>
  </defs>
  <g class="cls-13">
    <g id="Layer_1" data-name="Layer 1">
      <g>
        <g>
          <g>
            <path class="cls-1" d="M869.8,0l-2.926,8.738H9.055v457.088l-7.195-.398-1.86,2.736,8.959,8.624.096-.092v.183h869.821V8.738l-9.077-8.738ZM844.235,443.531H43.697V42.085h800.538v401.446Z"/>
            <rect class="cls-14" x="30.345" y="29.233" width="809.198" height="409.783"/>
            <rect class="cls-15" x="4.364" y="4.222" width="861.161" height="459.804"/>
            <path class="cls-11" d="M865.525,464.026H4.364V4.222h861.161v459.804ZM30.345,439.015h809.198V29.233H30.345v409.783Z"/>
          </g>
          <polygon class="cls-12" points="4.364 4.222 30.345 29.233 839.544 29.233 865.525 4.222 4.364 4.222"/>
          <polygon class="cls-6" points="4.364 4.222 30.345 29.233 30.345 439.015 4.364 464.026 4.364 4.222"/>
          <polygon class="cls-2" points="4.364 464.026 865.525 464.026 839.544 439.015 30.345 439.015 4.364 464.026"/>
          <polygon class="cls-9" points="839.544 439.015 839.544 29.233 865.525 4.222 865.525 464.026 839.544 439.015"/>
        </g>
        <ellipse class="cls-8" cx="368.148" cy="16.727" rx="318.392" ry="14.383"/>
        <path class="cls-10" d="M865.525,451.521c0,4.412-182.455,7.989-407.525,7.989s-407.525-3.577-407.525-7.989,182.455-7.99,407.525-7.99,407.525,3.577,407.525,7.99Z"/>
        <path class="cls-3" d="M11.942,423.922c-3.896,0-7.054-90.843-7.054-202.903S8.046,18.117,11.942,18.117s7.054,90.842,7.054,202.902-3.158,202.903-7.054,202.903Z"/>
        <path class="cls-7" d="M859.588,423.922c-3.896,0-7.054-90.843-7.054-202.903s3.158-202.902,7.054-202.902,7.054,90.842,7.054,202.902-3.158,202.903-7.054,202.903Z"/>
        <ellipse class="cls-5" cx="839.544" cy="209.506" rx="3.462" ry="191.389"/>
        <ellipse class="cls-4" cx="474.149" cy="439.016" rx="391.377" ry="2.055"/>
      </g>
    </g>
  </g>
</svg>