<?xml version="1.0" encoding="UTF-8"?>
<svg xmlns="http://www.w3.org/2000/svg" xmlns:xlink="http://www.w3.org/1999/xlink" viewBox="0 0 648.057 671.599">
  <defs>
    <style>
      .cls-1 {
        fill: url(#linear-gradient);
      }

      .cls-1, .cls-2, .cls-3, .cls-4, .cls-5, .cls-6, .cls-7, .cls-8, .cls-9, .cls-10, .cls-11, .cls-12 {
        stroke-width: 0px;
      }

      .cls-2 {
        fill: url(#linear-gradient-6);
      }

      .cls-13 {
        isolation: isolate;
      }

      .cls-3 {
        fill: url(#radial-gradient-3);
        opacity: .64;
      }

      .cls-3, .cls-4, .cls-5, .cls-7, .cls-8, .cls-10 {
        mix-blend-mode: screen;
      }

      .cls-4 {
        fill: url(#radial-gradient-6);
      }

      .cls-5 {
        fill: url(#radial-gradient-5);
      }

      .cls-6 {
        fill: url(#linear-gradient-5);
      }

      .cls-7 {
        fill: url(#radial-gradient-4);
      }

      .cls-8 {
        fill: url(#radial-gradient);
      }

      .cls-14 {
        stroke: url(#linear-gradient-2);
      }

      .cls-14, .cls-15 {
        fill: none;
        stroke-linecap: round;
        stroke-miterlimit: 10;
        stroke-width: 4px;
      }

      .cls-9 {
        fill: url(#linear-gradient-7);
      }

      .cls-15 {
        stroke: url(#linear-gradient-3);
      }

      .cls-10 {
        fill: url(#radial-gradient-2);
      }

      .cls-11 {
        fill: url(#New_Gradient_Swatch);
      }

      .cls-12 {
        fill: url(#linear-gradient-4);
      }
    </style>
    <linearGradient id="linear-gradient" x1="169.432" y1="111.705" x2="594.317" y2="727.626" gradientUnits="userSpaceOnUse">
      <stop offset=".036" stop-color="#6a4527"/>
      <stop offset="1" stop-color="#59331b"/>
    </linearGradient>
    <linearGradient id="linear-gradient-2" x1="320.715" y1="620.275" x2="320.715" y2="39.169" gradientUnits="userSpaceOnUse">
      <stop offset=".085" stop-color="#edeec6"/>
      <stop offset=".343" stop-color="#cfad6d"/>
      <stop offset="1" stop-color="#59331b"/>
    </linearGradient>
    <linearGradient id="linear-gradient-3" x1="320.715" y1="655.498" x2="320.715" y2="3.946" gradientUnits="userSpaceOnUse">
      <stop offset="0" stop-color="#59331b"/>
      <stop offset=".657" stop-color="#cfad6d"/>
      <stop offset=".915" stop-color="#edeec6"/>
    </linearGradient>
    <linearGradient id="New_Gradient_Swatch" data-name="New Gradient Swatch" x1="3.218" y1="329.722" x2="638.212" y2="329.722" gradientUnits="userSpaceOnUse">
      <stop offset="0" stop-color="#b88c32"/>
      <stop offset=".209" stop-color="#edeec6"/>
      <stop offset=".422" stop-color="#cfad6d"/>
      <stop offset=".611" stop-color="#59331b"/>
      <stop offset=".801" stop-color="#7c4e2b"/>
      <stop offset=".977" stop-color="#cfad6d"/>
    </linearGradient>
    <linearGradient id="linear-gradient-4" x1="3.218" y1="23.557" x2="638.212" y2="23.557" gradientUnits="userSpaceOnUse">
      <stop offset=".023" stop-color="#cfad6d"/>
      <stop offset=".32" stop-color="#edeec6"/>
      <stop offset=".618" stop-color="#cfad6d"/>
      <stop offset="1" stop-color="#b88c32"/>
    </linearGradient>
    <linearGradient id="linear-gradient-5" x1="14.173" y1="12.632" x2="11.238" y2="651.537" gradientUnits="userSpaceOnUse">
      <stop offset="0" stop-color="#b88c32"/>
      <stop offset=".209" stop-color="#edeec6"/>
      <stop offset=".422" stop-color="#cfad6d"/>
      <stop offset=".611" stop-color="#59331b"/>
      <stop offset=".801" stop-color="#7c4e2b"/>
      <stop offset=".977" stop-color="#cfad6d"/>
    </linearGradient>
    <linearGradient id="linear-gradient-6" x1="38.322" y1="638.261" x2="627.428" y2="633.471" gradientUnits="userSpaceOnUse">
      <stop offset=".01" stop-color="#7c4e2b"/>
      <stop offset=".359" stop-color="#cfad6d"/>
      <stop offset="1" stop-color="#59331b"/>
    </linearGradient>
    <linearGradient id="linear-gradient-7" x1="632.315" y1="2.72" x2="624.977" y2="689.565" xlink:href="#linear-gradient-5"/>
    <radialGradient id="radial-gradient" cx="266.11" cy="-800.141" fx="266.11" fy="-800.141" r="78.539" gradientTransform="translate(-523.847 229.962) scale(2.989 .258)" gradientUnits="userSpaceOnUse">
      <stop offset=".023" stop-color="#dbbd84"/>
      <stop offset="1" stop-color="#000"/>
    </radialGradient>
    <radialGradient id="radial-gradient-2" cx="295.682" cy="512.403" fx="295.682" fy="512.403" r="78.557" gradientTransform="translate(-793.349 562.495) scale(3.825 .143)" xlink:href="#radial-gradient"/>
    <radialGradient id="radial-gradient-3" cx="158.594" cy="3571.408" fx="158.594" fy="3571.408" r="54.303" gradientTransform="translate(350.978 -523.042) rotate(90) scale(5.261 .096)" xlink:href="#radial-gradient"/>
    <radialGradient id="radial-gradient-4" cx="158.594" cy="-2952.294" fx="158.594" fy="-2952.294" r="54.303" gradientTransform="translate(350.978 -523.042) rotate(90) scale(5.261 .096)" xlink:href="#radial-gradient"/>
    <radialGradient id="radial-gradient-5" cx="279.703" cy="3635.817" fx="279.703" fy="3635.817" r="78.59" gradientTransform="translate(737.112 -664.643) rotate(90) scale(3.431 .032)" xlink:href="#radial-gradient"/>
    <radialGradient id="radial-gradient-6" cx="498.087" cy="18104.186" fx="498.087" fy="18104.186" r="78.537" gradientTransform="translate(2179.468 1285.442) rotate(-180) scale(3.674 .037)" xlink:href="#radial-gradient"/>
  </defs>
  <g class="cls-13">
    <g id="FRAME_1:1" data-name="FRAME 1:1">
      <g>
        <g>
          <g>
            <path class="cls-1" d="M641.364,0l-2.158,12.305H6.677v643.728l-5.305-.56-1.372,3.853,6.606,12.146.071-.13v.257h641.38V12.305l-6.693-12.305ZM622.513,624.635H32.221V59.269h590.292v565.366Z"/>
            <rect class="cls-14" x="22.376" y="41.169" width="596.678" height="577.106"/>
            <rect class="cls-15" x="3.218" y="5.946" width="634.994" height="647.552"/>
            <path class="cls-11" d="M638.212,653.498H3.218V5.946h634.994v647.552ZM22.376,618.275h596.678V41.169H22.376v577.106Z"/>
          </g>
          <polygon class="cls-12" points="3.218 5.946 22.376 41.169 619.054 41.169 638.212 5.946 3.218 5.946"/>
          <polygon class="cls-6" points="3.218 5.946 22.376 41.169 22.376 618.275 3.218 653.498 3.218 5.946"/>
          <polygon class="cls-2" points="3.218 653.498 638.212 653.498 619.054 618.275 22.376 618.275 3.218 653.498"/>
          <polygon class="cls-9" points="619.054 618.275 619.054 41.169 638.212 5.946 638.212 653.498 619.054 618.275"/>
        </g>
        <ellipse class="cls-8" cx="271.461" cy="23.557" rx="234.772" ry="20.256"/>
        <path class="cls-10" d="M638.212,635.887c0,6.214-134.537,11.252-300.496,11.252s-300.496-5.037-300.496-11.252,134.537-11.252,300.496-11.252,300.496,5.038,300.496,11.252Z"/>
        <path class="cls-3" d="M8.806,597.019c-2.873,0-5.201-127.936-5.201-285.752S5.933,25.514,8.806,25.514s5.201,127.936,5.201,285.752-2.329,285.752-5.201,285.752Z"/>
        <path class="cls-7" d="M633.834,597.019c-2.873,0-5.201-127.936-5.201-285.752s2.328-285.752,5.201-285.752,5.201,127.936,5.201,285.752-2.329,285.752-5.201,285.752Z"/>
        <ellipse class="cls-5" cx="619.054" cy="295.053" rx="2.553" ry="269.538"/>
        <ellipse class="cls-4" cx="349.623" cy="618.276" rx="288.589" ry="2.894"/>
      </g>
    </g>
  </g>
</svg>