<svg width="46" height="47" viewBox="0 0 46 47" fill="none" xmlns="http://www.w3.org/2000/svg">
<path d="M23 46.3134L23.6435 46.3045C36.0423 45.9634 46 35.7942 46 23.3134C46 10.6404 35.696 0.313354 23 0.313354C10.327 0.313354 0 10.6404 0 23.3134C0 36.0094 10.327 46.3134 23 46.3134ZM27.554 32.5134C26.864 33.2034 25.783 33.2034 25.116 32.5134L17.089 24.5324C16.767 24.2104 16.583 23.7734 16.583 23.3134C16.583 22.8534 16.767 22.4164 17.089 22.0944L25.116 14.1134C25.438 13.7684 25.875 13.6074 26.312 13.6074C26.772 13.6074 27.209 13.7684 27.554 14.1134C28.221 14.8034 28.221 15.8844 27.531 16.5514L20.746 23.3134L27.531 30.0754C28.221 30.7424 28.221 31.8464 27.554 32.5134Z" fill="#BBBBBB"/>
</svg>
