<svg width="16" height="27" viewBox="0 0 16 27" fill="none" xmlns="http://www.w3.org/2000/svg">
<path d="M13.0717 26.678C13.5086 26.679 13.9359 26.5401 14.2994 26.2788C14.6629 26.0176 14.9463 25.6457 15.1135 25.2106C15.2806 24.7754 15.3241 24.2965 15.2384 23.8346C15.1527 23.3728 14.9416 22.9488 14.632 22.6165L6.04935 13.3633L14.632 4.1102C14.8369 3.88929 14.9994 3.62704 15.1103 3.33841C15.2212 3.04978 15.2783 2.74043 15.2783 2.42802C15.2783 2.11562 15.2212 1.80627 15.1103 1.51764C14.9994 1.22901 14.8369 0.966756 14.632 0.74585C14.4271 0.524944 14.1838 0.349713 13.9161 0.230159C13.6484 0.110606 13.3615 0.0490723 13.0717 0.0490723C12.7819 0.0490723 12.495 0.110606 12.2273 0.230159C11.9596 0.349713 11.7163 0.524944 11.5114 0.74585L1.36852 11.6812C1.1634 11.9019 1.00066 12.1641 0.889633 12.4528C0.778603 12.7414 0.721454 13.0509 0.721454 13.3633C0.721454 13.6758 0.778603 13.9852 0.889633 14.2739C1.00066 14.5625 1.1634 14.8247 1.36852 15.0455L11.5114 25.9808C11.7161 26.2021 11.9593 26.3776 12.227 26.4972C12.4948 26.6169 12.7818 26.6783 13.0717 26.678Z" fill="black"/>
</svg>
