<svg width="15" height="28" viewBox="0 0 15 28" fill="none" xmlns="http://www.w3.org/2000/svg">
<path d="M2.41268 0.710959C1.9758 0.709919 1.54847 0.848843 1.18495 1.1101C0.821429 1.37136 0.538099 1.74317 0.370922 2.17834C0.203745 2.61351 0.160259 3.09242 0.245985 3.55428C0.331711 4.01615 0.542782 4.44014 0.852409 4.77244L9.43503 14.0256L0.852409 23.2787C0.647511 23.4996 0.484978 23.7619 0.374087 24.0505C0.263197 24.3391 0.206123 24.6485 0.206123 24.9609C0.206123 25.2733 0.263197 25.5826 0.374087 25.8713C0.484977 26.1599 0.647511 26.4222 0.852409 26.6431C1.05731 26.864 1.30056 27.0392 1.56827 27.1588C1.83598 27.2783 2.12291 27.3398 2.41268 27.3398C2.70245 27.3398 2.98939 27.2783 3.2571 27.1588C3.52481 27.0392 3.76806 26.864 3.97296 26.6431L14.1159 15.7078C14.321 15.487 14.4837 15.2248 14.5947 14.9361C14.7058 14.6475 14.7629 14.3381 14.7629 14.0256C14.7629 13.7131 14.7058 13.4037 14.5947 13.115C14.4837 12.8264 14.321 12.5642 14.1159 12.3434L3.97296 1.4081C3.7683 1.18682 3.5251 1.01133 3.25734 0.891692C2.98958 0.772055 2.70253 0.710636 2.41268 0.710959Z" fill="white"/>
</svg>
