<svg width="47" height="47" viewBox="0 0 47 47" fill="none" xmlns="http://www.w3.org/2000/svg">
<path d="M23.6816 0.313263L23.0382 0.322105C10.6393 0.663238 0.681641 10.8324 0.681641 23.3133C0.681641 35.9863 10.9856 46.3133 23.6816 46.3133C36.3546 46.3133 46.6816 35.9863 46.6816 23.3133C46.6816 10.6173 36.3546 0.313263 23.6816 0.313263ZM19.1276 14.1133C19.8176 13.4233 20.8986 13.4233 21.5656 14.1133L29.5926 22.0943C29.9146 22.4163 30.0986 22.8533 30.0986 23.3133C30.0986 23.7733 29.9146 24.2103 29.5926 24.5323L21.5656 32.5133C21.2436 32.8583 20.8066 33.0193 20.3696 33.0193C19.9096 33.0193 19.4726 32.8583 19.1276 32.5133C18.4606 31.8233 18.4606 30.7423 19.1506 30.0753L25.9356 23.3133L19.1506 16.5513C18.4606 15.8843 18.4606 14.7803 19.1276 14.1133Z" fill="#BBBBBB"/>
</svg>
