<svg width="24" height="25" viewBox="0 0 24 25" fill="none" xmlns="http://www.w3.org/2000/svg">
<g clip-path="url(#clip0_2333_873)">
<path d="M14.25 3.03148L14.17 2.99148L14.16 3.01148C13.46 2.86148 12.74 2.77148 12 2.77148C6.48 2.77148 2 7.25148 2 12.7715C2 18.2915 6.48 22.7715 12 22.7715C17.52 22.7715 22 18.2915 22 12.7715C22 8.02148 18.69 4.05148 14.25 3.03148ZM19.41 9.77148H11.42L14.13 5.07148C16.53 5.73148 18.48 7.49148 19.41 9.77148ZM13.1 4.85148L10.27 9.77148L9.12 11.7715L6.4 7.07148C7.84 5.65148 9.82 4.77148 12 4.77148C12.37 4.77148 12.74 4.80148 13.1 4.85148ZM5.7 7.86148L8.54 12.7715L9.69 14.7715H4.26C4.1 14.1315 4 13.4615 4 12.7715C4 10.9215 4.64 9.22148 5.7 7.86148ZM4.59 15.7715H12.57L9.86 20.4715C7.46 19.8015 5.52 18.0515 4.59 15.7715ZM10.9 20.6815L14.89 13.7715L17.61 18.4715C16.16 19.8915 14.18 20.7715 12 20.7715C11.62 20.7715 11.26 20.7315 10.9 20.6815V20.6815ZM18.3 17.6815L14.3 10.7715H19.73C19.9 11.4115 20 12.0815 20 12.7715C20 14.6215 19.36 16.3215 18.3 17.6815Z" fill="#323232"/>
</g>
<defs>
<clipPath id="clip0_2333_873">
<rect width="24" height="24" fill="white" transform="translate(0 0.771484)"/>
</clipPath>
</defs>
</svg>
