<svg width="24" height="25" viewBox="0 0 24 25" fill="none" xmlns="http://www.w3.org/2000/svg">
<g clip-path="url(#clip0_2333_270)">
<path d="M9.4 11.2715L14.17 3.01148C13.47 2.86148 12.75 2.77148 12 2.77148C9.6 2.77148 7.4 3.62148 5.68 5.02148L9.34 11.3715L9.4 11.2715ZM21.54 9.77148C20.62 6.85148 18.39 4.51148 15.54 3.43148L11.88 9.77148H21.54ZM21.8 10.7715H14.31L14.6 11.2715L19.36 19.5215C21 17.7415 22 15.3815 22 12.7715C22 12.0815 21.93 11.4215 21.8 10.7715ZM8.54 12.7715L4.64 6.02148C3.01 7.80148 2 10.1615 2 12.7715C2 13.4615 2.07 14.1215 2.2 14.7715H9.69L8.54 12.7715V12.7715ZM2.46 15.7715C3.38 18.6915 5.61 21.0315 8.46 22.1115L12.12 15.7715H2.46V15.7715ZM13.73 15.7715L9.83 22.5315C10.53 22.6815 11.25 22.7715 12 22.7715C14.4 22.7715 16.6 21.9215 18.32 20.5215L14.66 14.1715L13.73 15.7715V15.7715Z" fill="white"/>
</g>
<defs>
<clipPath id="clip0_2333_270">
<rect width="24" height="24" fill="white" transform="translate(0 0.771484)"/>
</clipPath>
</defs>
</svg>
