<svg width="24" height="25" viewBox="0 0 24 25" fill="none" xmlns="http://www.w3.org/2000/svg">
<g clip-path="url(#clip0_2333_897)">
<path d="M4 6.77148H2V20.7715C2 21.8715 2.9 22.7715 4 22.7715H18V20.7715H4V6.77148ZM20 2.77148H8C6.9 2.77148 6 3.67148 6 4.77148V16.7715C6 17.8715 6.9 18.7715 8 18.7715H20C21.1 18.7715 22 17.8715 22 16.7715V4.77148C22 3.67148 21.1 2.77148 20 2.77148ZM17 4.77148V9.77148L16 9.02148L15 9.77148V4.77148H17ZM20 16.7715H8V4.77148H13V13.7715L16 11.5215L19 13.7715V4.77148H20V16.7715Z" fill="#323232"/>
</g>
<defs>
<clipPath id="clip0_2333_897">
<rect width="24" height="24" fill="white" transform="translate(0 0.771484)"/>
</clipPath>
</defs>
</svg>
