<svg width="24" height="25" viewBox="0 0 24 25" fill="none" xmlns="http://www.w3.org/2000/svg">
<g clip-path="url(#clip0_2333_1280)">
<path d="M2.52985 20.4215L3.86985 20.9815V11.9515L1.43986 17.8115C1.02986 18.8315 1.51985 20.0015 2.52985 20.4215ZM22.0299 16.7215L17.0699 4.75148C16.7599 4.00148 16.0299 3.54148 15.2599 3.52148C14.9999 3.52148 14.7299 3.56148 14.4699 3.67148L7.09985 6.72148C6.34985 7.03148 5.88985 7.75148 5.86985 8.52148C5.85985 8.79148 5.90985 9.06148 6.01986 9.32148L10.9799 21.2915C11.2899 22.0515 12.0299 22.5115 12.8099 22.5215C13.0699 22.5215 13.3299 22.4715 13.5799 22.3715L20.9399 19.3215C21.9599 18.9015 22.4499 17.7315 22.0299 16.7215ZM12.8299 20.5215L7.86985 8.56148L15.2199 5.52148H15.2299L20.1799 17.4715L12.8299 20.5215Z" fill="#323232"/>
<path d="M11 10.7715C11.5523 10.7715 12 10.3238 12 9.77148C12 9.2192 11.5523 8.77148 11 8.77148C10.4477 8.77148 10 9.2192 10 9.77148C10 10.3238 10.4477 10.7715 11 10.7715Z" fill="#323232"/>
<path d="M5.87988 20.5216C5.87988 21.6216 6.77988 22.5216 7.87988 22.5216H9.32988L5.87988 14.1816V20.5216Z" fill="#323232"/>
</g>
<defs>
<clipPath id="clip0_2333_1280">
<rect width="24" height="24" fill="white" transform="translate(0 0.771484)"/>
</clipPath>
</defs>
</svg>
